<svg version="1.1" xmlns="http://www.w3.org/2000/svg" x="0" y="0" viewBox="0 0 64 64" xml:space="preserve"><title>rapide</title><g class="nc-icon-wrapper" fill="#68a7e3"><path fill="#50dc9b" d="M31.083 9.834c-7.769-2.21-16.129-.11-21.964 5.726a22.58 22.58 0 0 0-3.448 4.486c-.231.393-.168.893.154 1.215l7.221 7.22c3.48-5.411 9.319-12.752 18.037-18.647z"/><path fill="#50dc9b" d="M35.483 50.919l7.256 7.255a.995.995 0 0 0 1.215.154 22.472 22.472 0 0 0 4.486-3.448c5.882-5.882 7.967-14.296 5.689-22.101-5.905 8.748-13.246 14.631-18.646 18.14z"/><path data-color="color-2" d="M9 48c-3.859 0-7 3.14-7 7v6a1 1 0 0 0 1 1h6c3.859 0 7-3.14 7-7s-3.141-7-7-7z"/><path data-color="color-2" d="M57.616 22.202c2.334-5.527 3.969-11.875 4.382-19.146a.996.996 0 0 0-1.05-1.055c-7.304.381-13.672 1.997-19.211 4.322l15.879 15.879z"/><path fill="#50dc9b" d="M39.772 7.186c-20.724 9.672-28.875 29.302-28.978 29.557-.149.372-.062.797.221 1.08l15.162 15.163a1 1 0 0 0 1.086.219c.253-.104 19.786-8.349 29.488-29.039L39.772 7.186zm.379 24.244a5.36 5.36 0 1 1-7.581-7.581 5.36 5.36 0 0 1 7.581 7.581z"/></g></svg>